# xmcd
#
# Track frame offsets: 
#        150
#        21740
#        35657
#        59095
#        82627
#        108350
#        130440
#        150317
#        172110
#        193090
#        245500
#
# Disc length: 3703 seconds
#
# Revision: 2
# Processed by: cddbd v1.5.2PL0 Copyright (c) Steve Scherf et al.
# Submitted via: ExactAudioCopy v0.99pb4
#
DISCID=970e750b
DTITLE=El Fish - Hooked
DYEAR=1999
DGENRE=Blues
TTITLE0=Visit Dr. Boogie (alt. version)
TTITLE1=People in traffic (alt. version)
TTITLE2=55th Street boogie (live)
TTITLE3=Copydog (alt. live version)
TTITLE4=Hangin' over (live)
TTITLE5=Shake 'm (live)
TTITLE6=Why do you treat me so mean (live)
TTITLE7=Look at the children run (live)
TTITLE8=Little boogiemachine (unplugged)
TTITLE9=Sweet blood call (live)
TTITLE10=Mighty long time (live)
EXTD=
EXTT0=
EXTT1=
EXTT2=
EXTT3=
EXTT4=
EXTT5=
EXTT6=
EXTT7=
EXTT8=
EXTT9=
EXTT10=
PLAYORDER=
